<svg width="24" height="24" viewBox="0 0 24 24" fill="none" xmlns="http://www.w3.org/2000/svg">
<path d="M11.3 1.3446C11.6851 0.551799 12.3147 0.551799 12.6998 1.3446L15.2452 6.58543C15.6303 7.37786 16.6501 8.13051 17.5112 8.25771L23.2025 9.09816C24.0635 9.22498 24.2581 9.83393 23.6352 10.4511L19.5165 14.5307C18.8932 15.1475 18.504 16.3655 18.651 17.2367L19.6235 22.9968C19.7701 23.868 19.261 24.2443 18.4907 23.8331L13.4002 21.1133C12.6304 20.702 11.3698 20.702 10.6 21.1133L5.50941 23.8331C4.7392 24.2447 4.22967 23.8684 4.37699 22.9968L5.34917 17.2367C5.49649 16.3655 5.10695 15.1479 4.4837 14.5307L0.364952 10.4511C-0.258305 9.83356 -0.0633529 9.22498 0.797688 9.09816L6.48898 8.25771C7.35002 8.13051 8.36983 7.37786 8.75456 6.58543L11.3 1.3446Z" fill="url(#paint0_linear_8737_2342)"/>
<path d="M23.2141 8.98103L17.6062 8.15237C16.7577 8.02696 15.7529 7.28487 15.3734 6.50356L12.8652 1.33626C12.4857 0.55458 11.8654 0.55458 11.4859 1.33626L8.97774 6.50356C8.59863 7.28487 7.59375 8.02696 6.74531 8.15237L5.25 8.37359C8.08891 10.9787 13.0871 14.0484 20.512 13.4162L23.6405 10.3154C24.2543 9.70648 24.0626 9.10607 23.2141 8.98103Z" fill="url(#paint1_linear_8737_2342)"/>
<defs>
<linearGradient id="paint0_linear_8737_2342" x1="12.0001" y1="24.0001" x2="12.0001" y2="0.749906" gradientUnits="userSpaceOnUse">
<stop stop-color="#E6B400"/>
<stop offset="0.2047" stop-color="#E4AF00"/>
<stop offset="0.4426" stop-color="#DFA100"/>
<stop offset="0.6971" stop-color="#D68A00"/>
<stop offset="0.9616" stop-color="#CA6900"/>
<stop offset="1" stop-color="#C86400"/>
</linearGradient>
<linearGradient id="paint1_linear_8737_2342" x1="14.625" y1="13.4998" x2="14.625" y2="0.749907" gradientUnits="userSpaceOnUse">
<stop stop-color="#E6B400"/>
<stop offset="0.2047" stop-color="#E4AF00"/>
<stop offset="0.4426" stop-color="#DFA100"/>
<stop offset="0.6971" stop-color="#D68A00"/>
<stop offset="0.9616" stop-color="#CA6900"/>
<stop offset="1" stop-color="#C86400"/>
</linearGradient>
</defs>
</svg>
